<svg aria-hidden="true" style="width:0;height:0;position:absolute;overflow:hidden" xmlns="http://www.w3.org/2000/svg"><defs><symbol id="logo-icon" viewBox="0 0 32 32"><path fill="#f6f6f6" style="fill:var(--color1,#f6f6f6)" d="m0 0 16.343 16.171L32 32V0H0z"/><path fill="#f6f6f6" style="fill:var(--color1,#f6f6f6)" d="M4.457 4.229 16.4 16.058l11.257 11.486h-23.2V4.23z"/><path fill="#4f2ee8" style="fill:var(--color2,#4f2ee8)" d="M27.733 27.618 15.79 15.789 4.533 4.303h23.2v23.314z"/><path fill="#4f2ee8" style="fill:var(--color2,#4f2ee8)" d="m9.257 9.029 13.6 13.6h-13.6v-13.6z"/><path fill="#f6f6f6" style="fill:var(--color1,#f6f6f6)" d="m9.257 9.029 13.6 13.6v-13.6h-13.6z"/></symbol><symbol id="scroll-up-icon" viewBox="0 0 32 32"><path fill="#4f2ee8" style="fill:var(--color2,#4f2ee8)" opacity=".3" d="M32 16c0 8.837-7.163 16-16 16S0 24.837 0 16 7.163 0 16 0s16 7.163 16 16z"/><path fill="#4f2ee8" style="fill:var(--color2,#4f2ee8)" d="M29.5 16c0 7.456-6.044 13.5-13.5 13.5S2.5 23.456 2.5 16 8.544 2.5 16 2.5 29.5 8.544 29.5 16z"/><path fill="#fff" style="fill:var(--color3,#fff)" d="m11.687 17.35 4.2-4.213c.05-.05.104-.085.162-.106s.121-.031.188-.031.129.011.188.031.113.056.163.106L20.8 17.35c.117.117.175.262.175.438s-.063.325-.188.45a.6.6 0 0 1-.876 0l-3.675-3.675-3.675 3.675c-.117.117-.26.175-.431.175s-.319-.063-.444-.188a.6.6 0 0 1 0-.876z"/></symbol><symbol id="user-icon" viewBox="0 0 32 32"><path fill="#4f2ee8" style="fill:var(--color2,#4f2ee8)" d="M5.333 29.333a10.662 10.662 0 0 1 18.208-7.543c2 2 3.124 4.714 3.124 7.543H5.332zm10.667-12c-4.42 0-8-3.58-8-8s3.58-8 8-8 8 3.58 8 8-3.58 8-8 8z"/></symbol><symbol id="trash-icon" viewBox="0 0 32 32"><path fill="none" stroke="#fff" style="stroke:var(--color3,#fff)" stroke-linejoin="round" stroke-linecap="round" stroke-width="3.2" d="M11.6 2.8h8.8M2.8 7.2h26.4m-2.933 0-1.029 15.428c-.154 2.315-.232 3.472-.731 4.35a4.397 4.397 0 0 1-1.904 1.781c-.909.44-2.069.44-4.389.44h-4.427c-2.32 0-3.48 0-4.389-.44a4.403 4.403 0 0 1-1.904-1.781c-.5-.878-.577-2.035-.731-4.35L5.734 7.2m7.333 6.6v7.333m5.866-7.333v7.333"/></symbol><symbol id="menu-icon" viewBox="0 0 32 32"><path stroke-width="2.286" stroke-linecap="round" stroke-linejoin="round" d="M22.667 13.333H4M28 8H4M28 18.667H4M22.667 24H4"/></symbol><symbol id="close-icon" viewBox="0 0 32 32"><path stroke-linejoin="round" stroke-linecap="round" stroke-width="5.333" d="M28.444 3.556 3.555 28.445m.001-24.889 24.889 24.889"/></symbol><symbol id="password-icon" viewBox="0 0 32 32"><path stroke-linejoin="round" stroke-linecap="round" stroke-width="2.667" d="M23.778 14.444V9.777c0-4.296-3.482-7.778-7.778-7.778S8.222 5.481 8.222 9.777v4.667M9.467 30h13.067c2.614 0 3.92 0 4.919-.509a4.662 4.662 0 0 0 2.039-2.039c.509-.998.509-2.305.509-4.919v-.622c0-2.614 0-3.92-.509-4.919a4.662 4.662 0 0 0-2.039-2.039c-.998-.509-2.305-.509-4.919-.509H9.467c-2.614 0-3.92 0-4.919.509a4.662 4.662 0 0 0-2.039 2.039C2 17.99 2 19.297 2 21.911v.622c0 2.614 0 3.92.509 4.919a4.662 4.662 0 0 0 2.039 2.039C5.546 30 6.853 30 9.467 30z"/></symbol><symbol id="email-icon" viewBox="0 0 32 32"><path stroke-linejoin="round" stroke-linecap="round" stroke-width="2.462" d="M29.641 24.615 20.103 16m-8.206 0-9.538 8.615M1.641 8.821l11.724 8.207c.949.665 1.424.997 1.94 1.126.456.114.933.114 1.389 0 .516-.129.991-.461 1.94-1.126l11.724-8.207M8.533 27.487h14.933c2.413 0 3.619 0 4.54-.47a4.303 4.303 0 0 0 1.882-1.883c.47-.921.47-2.128.47-4.54v-9.19c0-2.413 0-3.619-.47-4.54a4.308 4.308 0 0 0-1.882-1.883c-.921-.47-2.128-.47-4.54-.47H8.533c-2.413 0-3.619 0-4.54.47A4.305 4.305 0 0 0 2.11 6.864c-.47.921-.47 2.128-.47 4.54v9.19c0 2.412 0 3.619.47 4.54a4.305 4.305 0 0 0 1.883 1.883c.921.47 2.128.47 4.54.47z"/></symbol><symbol id="bag-icon" viewBox="0 0 25 32"><path d="M22.815 8.593h-4.444V7.112a5.93 5.93 0 0 0-5.926-5.926 5.93 5.93 0 0 0-5.926 5.926v1.481H2.075a1.482 1.482 0 0 0-1.482 1.482v16.296a4.444 4.444 0 0 0 4.445 4.445h14.815a4.444 4.444 0 0 0 4.445-4.445V10.075a1.482 1.482 0 0 0-1.481-1.482zM9.482 7.111a2.962 2.962 0 0 1 5.058-2.095c.556.556.868 1.309.868 2.095v1.481H9.482V7.111zM21.334 26.37a1.478 1.478 0 0 1-1.482 1.481H5.037a1.482 1.482 0 0 1-1.482-1.481V11.555h2.963v1.481a1.482 1.482 0 1 0 2.964 0v-1.481h5.926v1.481a1.482 1.482 0 1 0 2.964 0v-1.481h2.963V26.37z"/></symbol><symbol id="arrow-right" viewBox="0 0 43 32"><path fill="none" stroke="#eac645" style="stroke:var(--color1,#eac645)" stroke-linejoin="round" stroke-linecap="round" stroke-width="5.333" d="M3.555 16h35.556m0 0L25.778 2.667M39.111 16 25.778 29.333"/></symbol></defs></svg>