<svg aria-hidden="true" style="position: absolute; width: 0; height: 0; overflow: hidden;" version="1.1" xmlns="http://www.w3.org/2000/svg" xmlns:xlink="http://www.w3.org/1999/xlink">
<defs>
<symbol id="logo-icon" viewBox="0 0 32 32">
<path fill="#f6f6f6" style="fill: var(--color1, #f6f6f6)" d="M0 0l16.343 16.171 15.657 15.829v-32h-32z"></path>
<path fill="#f6f6f6" style="fill: var(--color1, #f6f6f6)" d="M4.457 4.229l11.943 11.829 11.257 11.486h-23.2v-23.314z"></path>
<path fill="#4f2ee8" style="fill: var(--color2, #4f2ee8)" d="M27.733 27.618l-11.943-11.829-11.257-11.486h23.2v23.314z"></path>
<path fill="#4f2ee8" style="fill: var(--color2, #4f2ee8)" d="M9.257 9.029l13.6 13.6h-13.6v-13.6z"></path>
<path fill="#f6f6f6" style="fill: var(--color1, #f6f6f6)" d="M9.257 9.029l13.6 13.6v-13.6h-13.6z"></path>
</symbol>
<symbol id="scroll-up-icon" viewBox="0 0 32 32">
<path fill="#4f2ee8" style="fill: var(--color2, #4f2ee8)" opacity="0.3" d="M32 16c0 8.837-7.163 16-16 16s-16-7.163-16-16c0-8.837 7.163-16 16-16s16 7.163 16 16z"></path>
<path fill="#4f2ee8" style="fill: var(--color2, #4f2ee8)" d="M29.5 16c0 7.456-6.044 13.5-13.5 13.5s-13.5-6.044-13.5-13.5c0-7.456 6.044-13.5 13.5-13.5s13.5 6.044 13.5 13.5z"></path>
<path fill="#fff" style="fill: var(--color3, #fff)" d="M11.687 17.35l4.2-4.213c0.050-0.050 0.104-0.085 0.162-0.106s0.121-0.031 0.188-0.031c0.067 0 0.129 0.011 0.188 0.031s0.113 0.056 0.163 0.106l4.212 4.213c0.117 0.117 0.175 0.262 0.175 0.438s-0.063 0.325-0.188 0.45c-0.125 0.125-0.271 0.188-0.438 0.188s-0.313-0.063-0.438-0.188l-3.675-3.675-3.675 3.675c-0.117 0.117-0.26 0.175-0.431 0.175s-0.319-0.063-0.444-0.188-0.188-0.271-0.188-0.438c0-0.167 0.063-0.313 0.188-0.438z"></path>
</symbol>
<symbol id="user-icon" viewBox="0 0 32 32">
<path fill="#4f2ee8" style="fill: var(--color2, #4f2ee8)" d="M5.333 29.333c0-2.829 1.124-5.542 3.124-7.543s4.713-3.124 7.542-3.124c2.829 0 5.542 1.124 7.542 3.124s3.124 4.714 3.124 7.543h-21.333zM16 17.333c-4.42 0-8-3.58-8-8s3.58-8 8-8c4.42 0 8 3.58 8 8s-3.58 8-8 8z"></path>
</symbol>
<symbol id="trash-icon" viewBox="0 0 32 32">
<path fill="none" stroke="#fff" style="stroke: var(--color3, #fff)" stroke-linejoin="round" stroke-linecap="round" stroke-miterlimit="4" stroke-width="3.2" d="M11.6 2.8h8.8M2.8 7.2h26.4M26.267 7.2l-1.029 15.428c-0.154 2.315-0.232 3.472-0.731 4.35-0.44 0.772-1.104 1.394-1.904 1.781-0.909 0.44-2.069 0.44-4.389 0.44h-4.427c-2.32 0-3.48 0-4.389-0.44-0.8-0.388-1.464-1.009-1.904-1.781-0.5-0.878-0.577-2.035-0.731-4.35l-1.029-15.428M13.067 13.8v7.333M18.933 13.8v7.333"></path>
</symbol>
<symbol id="menu-icon" viewBox="0 0 32 32">
<path stroke-width="2.2857" stroke-miterlimit="4" stroke-linecap="round" stroke-linejoin="round" d="M22.667 13.333h-18.667"></path>
<path stroke-width="2.2857" stroke-miterlimit="4" stroke-linecap="round" stroke-linejoin="round" d="M28 8h-24"></path>
<path stroke-width="2.2857" stroke-miterlimit="4" stroke-linecap="round" stroke-linejoin="round" d="M28 18.667h-24"></path>
<path stroke-width="2.2857" stroke-miterlimit="4" stroke-linecap="round" stroke-linejoin="round" d="M22.667 24h-18.667"></path>
</symbol>
<symbol id="close-icon" viewBox="0 0 32 32">
<path stroke-linejoin="round" stroke-linecap="round" stroke-miterlimit="4" stroke-width="5.3333" d="M28.444 3.556l-24.889 24.889M3.556 3.556l24.889 24.889"></path>
</symbol>
<symbol id="password-icon" viewBox="0 0 32 32">
<path stroke-linejoin="round" stroke-linecap="round" stroke-miterlimit="4" stroke-width="2.6667" d="M23.778 14.444v-4.667c0-4.296-3.482-7.778-7.778-7.778s-7.778 3.482-7.778 7.778v4.667M9.467 30h13.067c2.614 0 3.92 0 4.919-0.509 0.878-0.447 1.592-1.161 2.039-2.039 0.509-0.998 0.509-2.305 0.509-4.919v-0.622c0-2.614 0-3.92-0.509-4.919-0.447-0.878-1.161-1.592-2.039-2.039-0.998-0.509-2.305-0.509-4.919-0.509h-13.067c-2.614 0-3.92 0-4.919 0.509-0.878 0.447-1.592 1.161-2.039 2.039-0.509 0.998-0.509 2.305-0.509 4.919v0.622c0 2.614 0 3.92 0.509 4.919 0.447 0.878 1.161 1.592 2.039 2.039 0.998 0.509 2.305 0.509 4.919 0.509z"></path>
</symbol>
<symbol id="email-icon" viewBox="0 0 32 32">
<path stroke-linejoin="round" stroke-linecap="round" stroke-miterlimit="4" stroke-width="2.4615" d="M29.641 24.615l-9.538-8.615M11.897 16l-9.538 8.615M1.641 8.821l11.724 8.207c0.949 0.665 1.424 0.997 1.94 1.126 0.456 0.114 0.933 0.114 1.389 0 0.516-0.129 0.991-0.461 1.94-1.126l11.724-8.207M8.533 27.487h14.933c2.413 0 3.619 0 4.54-0.47 0.81-0.413 1.47-1.072 1.882-1.883 0.47-0.921 0.47-2.128 0.47-4.54v-9.19c0-2.413 0-3.619-0.47-4.54-0.413-0.811-1.072-1.47-1.882-1.883-0.921-0.47-2.128-0.47-4.54-0.47h-14.933c-2.413 0-3.619 0-4.54 0.47-0.811 0.413-1.47 1.072-1.883 1.883-0.47 0.921-0.47 2.128-0.47 4.54v9.19c0 2.412 0 3.619 0.47 4.54 0.413 0.811 1.072 1.47 1.883 1.883 0.921 0.47 2.128 0.47 4.54 0.47z"></path>
</symbol>
<symbol id="bag-icon" viewBox="0 0 25 32">
<path d="M22.815 8.593h-4.444v-1.481c0-1.572-0.624-3.079-1.736-4.19s-2.619-1.736-4.19-1.736c-1.572 0-3.079 0.624-4.19 1.736s-1.736 2.619-1.736 4.19v1.481h-4.444c-0.393 0-0.77 0.156-1.048 0.434s-0.434 0.655-0.434 1.048v16.296c0 1.179 0.468 2.309 1.302 3.143s1.964 1.302 3.143 1.302h14.815c1.179 0 2.309-0.468 3.143-1.302s1.302-1.964 1.302-3.143v-16.296c0-0.393-0.156-0.77-0.434-1.048s-0.655-0.434-1.047-0.434zM9.482 7.111c0-0.786 0.312-1.539 0.868-2.095s1.309-0.868 2.095-0.868c0.786 0 1.539 0.312 2.095 0.868s0.868 1.309 0.868 2.095v1.481h-5.926v-1.481zM21.334 26.37c0 0.393-0.156 0.77-0.434 1.047s-0.655 0.434-1.048 0.434h-14.815c-0.393 0-0.77-0.156-1.048-0.434s-0.434-0.655-0.434-1.047v-14.815h2.963v1.481c0 0.393 0.156 0.77 0.434 1.048s0.655 0.434 1.048 0.434c0.393 0 0.77-0.156 1.048-0.434s0.434-0.655 0.434-1.048v-1.481h5.926v1.481c0 0.393 0.156 0.77 0.434 1.048s0.655 0.434 1.048 0.434c0.393 0 0.77-0.156 1.048-0.434s0.434-0.655 0.434-1.048v-1.481h2.963v14.815z"></path>
</symbol>
<symbol id="arrow-right" viewBox="0 0 43 32">
<path fill="none" stroke="#eac645" style="stroke: var(--color1, #eac645)" stroke-linejoin="round" stroke-linecap="round" stroke-miterlimit="4" stroke-width="5.3333" d="M3.555 16h35.556M39.111 16l-13.333-13.333M39.111 16l-13.333 13.333"></path>
</symbol>
</defs>
</svg>
